# xmcd
#
# Track frame offsets: 
#        150
#        22990
#        39270
#        66977
#        85095
#        107020
#        141987
#        166052
#        200367
#        222922
#        245890
#        265912
#
# Disc length: 3974 seconds
#
# Revision: 2
# Processed by: cddbd v1.5.2PL0 Copyright (c) Steve Scherf et al.
# Submitted via: ExactAudioCopy v1.0b3
#
DISCID=a60f840c
DTITLE=Bernadette Cooper - Drama According To Bernadette Cooper
DYEAR=1990
DGENRE=Soul
TTITLE0=I Look Good (An Interview with Bernadette Cooper)
TTITLE1=Do You Really Know What Love Is
TTITLE2=Stupid
TTITLE3=The Underground
TTITLE4=The Agency Sent Me
TTITLE5=Let's Be Discreet
TTITLE6=Drama According To Bernadette Cooper
TTITLE7=I'm That Girl
TTITLE8=The Howard Hughes Sitcom
TTITLE9=Strait Jacket (Love Affair)
TTITLE10=Nothin' You Can Do
TTITLE11=Epilogue: Movie Produce Her
EXTD=
EXTT0=
EXTT1=
EXTT2=
EXTT3=
EXTT4=
EXTT5=
EXTT6=
EXTT7=
EXTT8=
EXTT9=
EXTT10=
EXTT11=
PLAYORDER=
